<svg xmlns="http://www.w3.org/2000/svg" xmlns:xlink="http://www.w3.org/1999/xlink" viewBox="0 0 500 500"><defs><clipPath id="freepik--clip-path--inject-236"><path d="M305.89,242.36c0,5.43-2.41,9.89-3.42,12.71a22.78,22.78,0,0,0-7-8c-3-1.83-4.73-3.54-8.24-3.79-2.37-.16-5.85,1.55-7.21,1.84,1.19-2.36,3.07-4.74,7.31-8.57-.46-6.5-.78-8.19-3-15.21-3.43,7.77-4.12,23.1-4.31,23.78-.47,1.63.68,5,2.12,8a161.12,161.12,0,0,1,10,28.58c-9.92,1.57-20.52-2.61-30.15-6.48a5.92,5.92,0,0,0-1.87-.51,5.77,5.77,0,0,0-2.76.84c-7.35,3.74-14.74,7.92-22.93,9a24,24,0,0,1-15.62-3.16c.61-11.12,4.31-22,11.31-30.44,0,0,.46-8.16.46-10,0-17.79-4.71-42.8-5.22-46.1s-2.51-8.34-5-8.34c7.47-2.7,20-6.91,25.73-11.7.11.27.22.51.33.77h0a35,35,0,0,0,3.16,6.3c2.52,3.72,2.55,3.83,2.49,5.38a7.73,7.73,0,0,1-.5,1.93,12.09,12.09,0,0,0,0,2.94c.66,9.08,5.1,35.18,9.58,41.05,5.19-13.33,7.27-28.31,5.06-42.47l-.21-1.21c-.19-1.12-3.22-3.06-1.79-7.17.82-2.36,1.29-4.07,1.62-5.36.56-2.18.72-3.16,1.47-4a45.22,45.22,0,0,1,6,4.17c.17.39,1.31.76,1.07.43,2.83,1.68,6.29,1.69,9.55,2.21,4.77.76,8.08,3.77,11.9,6.71C302.34,216.2,305.89,242.36,305.89,242.36Z" style="fill:#EFA87B;stroke:#263238;stroke-linecap:round;stroke-linejoin:round"></path></clipPath><clipPath id="freepik--clip-path-2--inject-236"><path d="M285.22,243.29l-.38.41c-1.13,1.24-2.22,2.54-3.27,3.86-1.31,1.66-2.53,3.35-3.7,5.11s-2.34,3.68-3.55,5.49a76.45,76.45,0,0,1-7.64,9.75,6.44,6.44,0,0,1-1.57,1.38,7,7,0,0,1-2.63.69c-4,.56-8.2,1.44-11.24,4.11-1.25,1.1-2.27,2.48-3.7,3.31s-3.69,1.49-3.76,3.23a2.75,2.75,0,0,0,.37,1.34c1.26,2.37,4.19,3.45,6.87,3.26a20.18,20.18,0,0,0,7.56-2.59,169.47,169.47,0,0,0,15.23-8.4c4.09-2.61,8-5.51,11.86-8.49a100.54,100.54,0,0,0,9.45-8,46.41,46.41,0,0,0,5.22-6C297.18,247.69,290.77,242.83,285.22,243.29Z" style="fill:#fff;stroke:#263238;stroke-linecap:round;stroke-linejoin:round"></path></clipPath></defs><g id="freepik--background-simple--inject-236"><path d="M87.91,188.47C68.27,253.49,77.8,325,104.1,387.57c7.8,18.58,21.11,40.32,32.34,57,9.77,14.55,67.46,19.19,103.89,20,47.93,1.12,118.56-3.63,134.54-20.36,34-35.61,59.2-93.6,41.11-139.5-12.57-31.88-38.48-56.53-54.78-86.66-22.17-41-26.53-92-58-126.41C289.29,76.45,271,65.94,251.84,58.79c-8.35-3.11-35.17-7.52-54.4,1.23-33.9,15.42-62.67,41.11-83.09,72.12A216.13,216.13,0,0,0,87.91,188.47Z" style="fill:#EFA87B;opacity:0.7000000000000001"></path><path d="M87.91,188.47C68.27,253.49,77.8,325,104.1,387.57c7.8,18.58,21.11,40.32,32.34,57,9.77,14.55,67.46,19.19,103.89,20,47.93,1.12,118.56-3.63,134.54-20.36,34-35.61,59.2-93.6,41.11-139.5-12.57-31.88-38.48-56.53-54.78-86.66-22.17-41-26.53-92-58-126.41C289.29,76.45,271,65.94,251.84,58.79c-8.35-3.11-35.17-7.52-54.4,1.23-33.9,15.42-62.67,41.11-83.09,72.12A216.13,216.13,0,0,0,87.91,188.47Z" style="fill:#fff;opacity:0.7000000000000001"></path></g><g id="freepik--Shadow--inject-236"><ellipse cx="254.74" cy="442.17" rx="118.98" ry="22.81" style="fill:#bfbfbf"></ellipse></g><g id="freepik--Window--inject-236"><polygon points="387.36 256.2 327.38 237.1 327.38 54.24 387.36 35.15 387.36 256.2" style="fill:#fff;stroke:#263238;stroke-linecap:round;stroke-linejoin:round"></polygon><line x1="356" y1="61.07" x2="340.28" y2="103.95" style="fill:#fff;stroke:#263238;stroke-linecap:round;stroke-linejoin:round"></line><line x1="358.53" y1="54.17" x2="356.86" y2="58.74" style="fill:#fff;stroke:#263238;stroke-linecap:round;stroke-linejoin:round"></line><line x1="362.38" y1="43.67" x2="359.28" y2="52.12" style="fill:#fff;stroke:#263238;stroke-linecap:round;stroke-linejoin:round"></line><line x1="363.53" y1="67.03" x2="342.73" y2="123.77" style="fill:#fff;stroke:#263238;stroke-linecap:round;stroke-linejoin:round"></line><line x1="371.34" y1="45.74" x2="364.62" y2="64.07" style="fill:#fff;stroke:#263238;stroke-linecap:round;stroke-linejoin:round"></line><line x1="356.55" y1="176.8" x2="340.61" y2="220.28" style="fill:#fff;stroke:#263238;stroke-linecap:round;stroke-linejoin:round"></line></g><g id="freepik--Wall--inject-236"><line x1="348.08" y1="383.1" x2="283.34" y2="335.56" style="fill:none;stroke:#263238;stroke-linecap:round;stroke-linejoin:round"></line><line x1="334.16" y1="372.88" x2="332.43" y2="371.61" style="fill:none;stroke:#263238;stroke-linecap:round;stroke-linejoin:round"></line><line x1="397.45" y1="419.36" x2="344.14" y2="380.2" style="fill:none;stroke:#263238;stroke-linecap:round;stroke-linejoin:round"></line><line x1="106.64" y1="335.56" x2="86.8" y2="335.56" style="fill:none;stroke:#263238;stroke-linecap:round;stroke-linejoin:round"></line><polygon points="263.44 335.56 220.93 335.56 178.44 335.56 263.44 335.56" style="fill:none;stroke:#263238;stroke-linecap:round;stroke-linejoin:round"></polygon><polyline points="263.44 335.56 283.34 335.56 283.34 325.3 283.34 290.28 283.34 246.86 283.34 246.85 283.34 186.38 283.34 74.7" style="fill:none;stroke:#263238;stroke-linecap:round;stroke-linejoin:round"></polyline></g><g id="freepik--coffee-machine--inject-236"><path d="M164.29,216.51a3.4,3.4,0,0,1-1.11.19H118.33a3.36,3.36,0,0,1-1.11-.19Z" style="fill:none;stroke:#263238;stroke-linecap:round;stroke-linejoin:round"></path><rect x="106.64" y="225.9" width="71.07" height="116.36" style="fill:none;stroke:#263238;stroke-linecap:round;stroke-linejoin:round"></rect><path d="M181.08,216.51v9.39H103.41v-9.39h13.81a3.36,3.36,0,0,0,1.11.19h44.85a3.4,3.4,0,0,0,1.11-.19Z" style="fill:#263238;stroke:#263238;stroke-linecap:round;stroke-linejoin:round"></path><path d="M164.29,216.51a3.4,3.4,0,0,1-1.11.19H118.33a3.36,3.36,0,0,1-1.11-.19Z" style="fill:none;stroke:#263238;stroke-linecap:round;stroke-linejoin:round"></path><g id="freepik--coffee-machine--inject-236"><path d="M158.22,185,154.15,210H127.36l-4.09-25.13c.33,0,.68.05,1,.05h33.93Z" style="fill:#fff;stroke:#263238;stroke-linecap:round;stroke-linejoin:round"></path><path d="M157.69,164.85h-33.4a9,9,0,0,0-9,9v2a9,9,0,0,0,8,9c.33,0,.68.05,1,.05h33.93a9.06,9.06,0,0,0,8.52-9v-2A9,9,0,0,0,157.69,164.85Zm-6.07,7.21a2.86,2.86,0,1,1-2.87,2.86A2.87,2.87,0,0,1,151.62,172.06Zm-12.28-2a5.6,5.6,0,0,1,.59-.12.75.75,0,0,1,1.5,0,5,5,0,0,1-.68,10,4.71,4.71,0,0,1-1.41-.2,5,5,0,0,1,0-9.66Zm-19,4.82a2.86,2.86,0,1,1,2.85,2.86A2.86,2.86,0,0,1,120.3,174.92Zm38.56,2.86a2.86,2.86,0,1,1,2.87-2.86A2.86,2.86,0,0,1,158.86,177.78Z" style="fill:#263238;stroke:#263238;stroke-linecap:round;stroke-linejoin:round"></path><path d="M126,174.92a2.86,2.86,0,1,1-2.87-2.86A2.86,2.86,0,0,1,126,174.92Z" style="fill:#fff;stroke:#263238;stroke-linecap:round;stroke-linejoin:round"></path><path d="M145.78,174.93a5,5,0,0,1-5,5,4.71,4.71,0,0,1-1.41-.2,5,5,0,0,1,0-9.66,5.6,5.6,0,0,1,.59-.12.75.75,0,0,1,1.5,0A5,5,0,0,1,145.78,174.93Z" style="fill:none;stroke:#263238;stroke-linecap:round;stroke-linejoin:round"></path><path d="M154.49,174.92a2.87,2.87,0,1,1-2.87-2.86A2.87,2.87,0,0,1,154.49,174.92Z" style="fill:none;stroke:#263238;stroke-linecap:round;stroke-linejoin:round"></path><path d="M161.73,174.92a2.87,2.87,0,1,1-2.87-2.86A2.87,2.87,0,0,1,161.73,174.92Z" style="fill:#fff;stroke:#263238;stroke-linecap:round;stroke-linejoin:round"></path><rect x="135.91" y="191.55" width="9.65" height="5.53" style="fill:#263238;stroke:#263238;stroke-linecap:round;stroke-linejoin:round"></rect><path d="M166.5,213.38a3.37,3.37,0,0,1-1,2.35,3.57,3.57,0,0,1-1.24.78,3.4,3.4,0,0,1-1.11.19H118.33a3.36,3.36,0,0,1-1.11-.19,3.31,3.31,0,0,1-2.21-3.13,3.33,3.33,0,0,1,3.32-3.33h44.85A3.32,3.32,0,0,1,166.5,213.38Z" style="fill:#5c5c5c;stroke:#263238;stroke-linecap:round;stroke-linejoin:round"></path><path d="M145.78,174.93a5,5,0,0,1-5,5,4.71,4.71,0,0,1-1.41-.2,5,5,0,0,1,0-9.66,5.6,5.6,0,0,1,.59-.12,4.47,4.47,0,0,1,.82-.07,5.06,5.06,0,0,1,.68.05A5,5,0,0,1,145.78,174.93Z" style="fill:#fff;stroke:#263238;stroke-linecap:round;stroke-linejoin:round"></path><rect x="132.59" y="185.01" width="16.09" height="6.44" style="fill:#fff;stroke:#263238;stroke-linecap:round;stroke-linejoin:round"></rect><rect x="145.63" y="193.45" width="8.05" height="2.51" style="fill:#263238;stroke:#263238;stroke-linecap:round;stroke-linejoin:round"></rect></g><path d="M151.62,172.06a2.86,2.86,0,1,0,2.87,2.86A2.87,2.87,0,0,0,151.62,172.06Z" style="fill:#fff;stroke:#263238;stroke-linecap:round;stroke-linejoin:round"></path><path d="M141.44,170v2.52a.76.76,0,0,1-.76.75.75.75,0,0,1-.75-.75V170a.75.75,0,0,1,1.5,0A.22.22,0,0,1,141.44,170Z" style="fill:#fff;stroke:#263238;stroke-linecap:round;stroke-linejoin:round"></path><path d="M173.26,335.56h-62V230.35h62Z" style="fill:none;stroke:#263238;stroke-linecap:round;stroke-linejoin:round"></path><rect x="161.9" y="270.39" width="4.78" height="14.63" style="fill:none;stroke:#263238;stroke-linecap:round;stroke-linejoin:round"></rect></g><g id="freepik--Plant--inject-236"><path d="M377.39,377.49l-3.18,39.94h0a59.35,59.35,0,0,1-35.25,0h0l-3.15-39.94Z" style="fill:#fff;stroke:#263238;stroke-linecap:round;stroke-linejoin:round"></path><ellipse cx="356.59" cy="377.49" rx="20.81" ry="2.67" style="fill:#263238;stroke:#263238;stroke-linecap:round;stroke-linejoin:round"></ellipse><path d="M358.09,294a22.62,22.62,0,0,0-6.8-7.38,27.36,27.36,0,0,0-9.48-5c-3.89-1-8.66-1.21-8.25.56a44.43,44.43,0,0,1,.56,5.42A22,22,0,0,0,349.35,306a10.39,10.39,0,0,0,5,.41C360,305.22,360.25,298.23,358.09,294Z" style="fill:#EFA87B"></path><path d="M349.36,365.9a18.16,18.16,0,0,0-7.85-1.59,21.06,21.06,0,0,0-8.29,1.24c-2.9,1.18-5.93,3.29-4.81,4.25a37.1,37.1,0,0,1,3,3.24c4.67,5,12.29,7,18.45,4.73a7.63,7.63,0,0,0,3.29-2.08C356.09,372.25,352.77,367.62,349.36,365.9Z" style="fill:#EFA87B"></path><path d="M378.14,286.22a19.69,19.69,0,0,0-.22-10,20.94,20.94,0,0,0-4.34-9.24c-2.56-2.87-6.47-5.47-7.46-3.69a58.42,58.42,0,0,1-3.62,5.1c-5.61,7.91-6,17.85-.87,24.08a8.44,8.44,0,0,0,3.95,2.92C371.33,297.19,376.8,291.07,378.14,286.22Z" style="fill:#EFA87B"></path><path d="M378.21,312.7a22.35,22.35,0,0,0,9.13-4.18,27.26,27.26,0,0,0,7.66-7.47c2.16-3.39,3.83-7.85,2-8a42.8,42.8,0,0,1-5.32-1.16,21.93,21.93,0,0,0-22.16,8.8,10.34,10.34,0,0,0-2,4.63C367,311.08,373.53,313.45,378.21,312.7Z" style="fill:#EFA87B"></path><path d="M353.26,311.86a22.75,22.75,0,0,0-8.42-5.48,27.55,27.55,0,0,0-10.41-2.46c-4,0-8.68,1-7.85,2.58a44,44,0,0,1,1.87,5.11,21.93,21.93,0,0,0,19.3,14,10.43,10.43,0,0,0,4.95-.83C357.91,322.23,356.39,315.41,353.26,311.86Z" style="fill:#EFA87B"></path><path d="M373.45,341.87c3.34-.51,6.23-2.44,9.17-4.11,9.36-5.33,11.23-15.14,14.85-16.88-1.28,1.29-8.6.67-10.37.28a21.93,21.93,0,0,0-22.23,8.62,10.31,10.31,0,0,0-2,4.61C362.21,340.16,368.77,342.58,373.45,341.87Z" style="fill:#EFA87B"></path><path d="M348.74,346.55a22.72,22.72,0,0,0-9.58-3,27.65,27.65,0,0,0-10.69.42c-3.87,1.07-8.1,3.28-6.87,4.6a43.41,43.41,0,0,1,3.18,4.42,22,22,0,0,0,22.35,8.31,10.55,10.55,0,0,0,4.55-2.13C356,355.29,352.71,349.13,348.74,346.55Z" style="fill:#EFA87B"></path><path d="M367.87,363.19a18,18,0,0,0,7.28-3.33,20.82,20.82,0,0,0,6-5.88c1.65-2.66,2.87-6.15,1.39-6.26a36.15,36.15,0,0,1-4.34-.85c-6.74-1.32-14.05,1.58-17.71,7a7.71,7.71,0,0,0-1.44,3.62C358.7,362,364.11,363.81,367.87,363.19Z" style="fill:#EFA87B"></path><path d="M373.12,372.47a13.5,13.5,0,0,0,4.59-3.81,15.91,15.91,0,0,0,3.21-5.44c.71-2.26.95-5.06-.12-4.87a25.09,25.09,0,0,1-3.25.18A13.09,13.09,0,0,0,366.19,367a5.9,5.9,0,0,0-.38,2.93C366.37,373.31,370.54,373.63,373.12,372.47Z" style="fill:#EFA87B"></path><path d="M342,288.74a203.2,203.2,0,0,1,19.12,21.18,45.4,45.4,0,0,0,8.71-25.67,74.16,74.16,0,0,0-2.16-17.4" style="fill:none;stroke:#5c5c5c;stroke-linecap:round;stroke-linejoin:round"></path><path d="M361.62,310.78a5.23,5.23,0,0,0,1-.31c3.69-1.49,6.44-2.58,10.21-3.87,8.15-2.79,22.77-12.33,22.77-12.33" style="fill:none;stroke:#5c5c5c;stroke-linecap:round;stroke-linejoin:round"></path><path d="M330.54,307.71c3.5,4.46,8.82,8.09,23.76,12.25,5.78,1.61,4.91,6.53,4.72,6.71" style="fill:none;stroke:#5c5c5c;stroke-linecap:round;stroke-linejoin:round"></path><path d="M358.71,334.09c1.54.81,6.23,1.74,11.82-.1,6.41-2.12,14.46-7,20.08-9.49" style="fill:none;stroke:#5c5c5c;stroke-linecap:round;stroke-linejoin:round"></path><path d="M356.5,359.46c7.61.82,14.9-3.45,21-8.08" style="fill:none;stroke:#5c5c5c;stroke-linecap:round;stroke-linejoin:round"></path><path d="M330.54,350.12a59.15,59.15,0,0,0,26,9.34" style="fill:none;stroke:#5c5c5c;stroke-linecap:round;stroke-linejoin:round"></path><path d="M337,370.3a84.93,84.93,0,0,0,23.45.8,40.4,40.4,0,0,0,4.25-.67,31.59,31.59,0,0,0,7.33-3.31,24,24,0,0,0,6.39-4.55" style="fill:none;stroke:#5c5c5c;stroke-linecap:round;stroke-linejoin:round"></path><path d="M361.09,305a100.72,100.72,0,0,1-.82,18.2c-1.26,9.13-3.77,18.17-3.43,27.37.16,4.64,2.54,9.15,3.92,14.31,1,3.6,1.72,11.08,1.28,12.22" style="fill:none;stroke:#5c5c5c;stroke-linecap:round;stroke-linejoin:round;stroke-width:4px"></path></g><g id="freepik--Character--inject-236"><path d="M205.76,322.42s0,.86,0,2.41a26.33,26.33,0,0,1-7.11-2.06v-.35C203.17,312.48,205.76,322.42,205.76,322.42Z" style="fill:#fff;stroke:#263238;stroke-linecap:round;stroke-linejoin:round"></path><path d="M309.47,322.42v.1c-.33.17-.67.32-1,.47s-.51.22-.77.32l-.48.18-.49.17-1,.32-.79.22-.83.2c-.28.07-.56.13-.85.18l-.88.16,0-2.32a17.47,17.47,0,0,1,1.3-2.4C307.37,314.36,309.47,322.42,309.47,322.42Z" style="fill:#fff;stroke:#263238;stroke-linecap:round;stroke-linejoin:round"></path><path d="M214.44,223.2l1.23,81s-.51,4.88,3,4.43c.92-.12,1.7,0,1.91-12.19.38-21.85,1-73.25,1-73.25S219,213.27,214.44,223.2Z" style="fill:#fff;stroke:#263238;stroke-linecap:round;stroke-linejoin:round"></path><path d="M287,223.2l1.23,81s-.52,4.88,3,4.43c.93-.12,1.71,0,1.92-12.19.37-21.85,1-73.25,1-73.25S291.6,213.27,287,223.2Z" style="fill:#fff;stroke:#263238;stroke-linecap:round;stroke-linejoin:round"></path><path d="M302,299.61s-.11,8.67-.25,20.41c0,1.57-.05,3.19-.07,4.85l-.83.11-.85.1c-.58.06-1.17.1-1.77.14-.85,0-1.74.08-2.64.08h-.36l-.39-25.69C299.36,289.67,302,299.61,302,299.61Z" style="fill:#fff;stroke:#263238;stroke-linecap:round;stroke-linejoin:round"></path><path d="M213.15,299.61S213,311,212.84,325.3h-.79a42,42,0,0,1-5.67-.37L206,299.61C210.57,289.67,213.15,299.61,213.15,299.61Z" style="fill:#fff;stroke:#263238;stroke-linecap:round;stroke-linejoin:round"></path><rect x="215.14" y="320.02" width="7.51" height="5.28" style="fill:#fff;stroke:#263238;stroke-linecap:round;stroke-linejoin:round"></rect><path d="M291.79,325.3V403a3.75,3.75,0,0,1-3.75,3.75h0a3.75,3.75,0,0,1-3.76-3.75V325.3Z" style="fill:#fff;stroke:#263238;stroke-linecap:round;stroke-linejoin:round"></path><rect x="284.28" y="320.02" width="7.51" height="5.28" style="fill:#fff;stroke:#263238;stroke-linecap:round;stroke-linejoin:round"></rect><path d="M205.54,419.36h0a3.75,3.75,0,0,1-3.75-3.76V320h7.5V415.6A3.75,3.75,0,0,1,205.54,419.36Z" style="fill:#fff;stroke:#263238;stroke-linecap:round;stroke-linejoin:round"></path><path d="M305.69,324V415.6a3.75,3.75,0,0,1-3.75,3.76h0a3.76,3.76,0,0,1-3.76-3.76V325.22c.6,0,1.19-.08,1.77-.14l.85-.1.83-.11c.24,0,.48-.07.71-.13l.88-.16c.29-.05.57-.11.85-.18s.56-.12.83-.2S305.43,324.06,305.69,324Z" style="fill:#fff;stroke:#263238;stroke-linecap:round;stroke-linejoin:round"></path><path d="M305.69,320v4l-.79.22-.83.2c-.28.07-.56.13-.85.18l-.88.16c-.23.06-.47.09-.71.13l-.83.11-.85.1c-.58.06-1.17.1-1.77.14V320Z" style="fill:#fff;stroke:#263238;stroke-linecap:round;stroke-linejoin:round"></path><path d="M309.47,322.52c-.33.17-.67.32-1,.47s-.51.22-.77.32l-.48.18-.49.17-1,.32-.79.22-.83.2c-.28.07-.56.13-.85.18l-.88.16c-.23.06-.47.09-.71.13l-.83.11-.85.1c-.58.06-1.17.1-1.77.14-.85,0-1.74.08-2.64.08H212.05q-1.43,0-2.76-.09c-1-.06-2-.15-2.91-.28l-.65-.1-.91-.15-.14,0c-.34-.06-.67-.13-1-.21l-.36-.08c-.5-.11-1-.24-1.43-.37l-.11,0-.26-.08-.17-.06-.41-.13-.3-.1c-.39-.14-.77-.28-1.13-.43s-.6-.25-.89-.39c-6.17-2.89-8.42-7.9-5.27-13.12l5.72-9.48c2.47-4.11,8.94-7.4,16.4-8.94a42.78,42.78,0,0,1,5.23-.77h0c1.31-.12,2.63-.18,3.95-.18h58.27a43.7,43.7,0,0,1,5.12.3,42.13,42.13,0,0,1,5.22.91h0c7,1.63,12.89,4.79,15.24,8.68l5.71,9.48C317.29,314.73,315.26,319.6,309.47,322.52Z" style="fill:#263238;stroke:#263238;stroke-linecap:round;stroke-linejoin:round"></path><rect x="204.16" y="186.38" width="97.53" height="60.48" rx="22.72" style="fill:#263238;stroke:#263238;stroke-linecap:round;stroke-linejoin:round"></rect><path d="M222.65,325.3V403a3.75,3.75,0,0,1-3.75,3.75h0a3.75,3.75,0,0,1-3.76-3.75V325.3Z" style="fill:#fff;stroke:#263238;stroke-linecap:round;stroke-linejoin:round"></path><path d="M298.21,310.86c-1.88,5.47-6.4,6-12,7.49-4,1-8.08,2-12.18,2.79a98.49,98.49,0,0,1-37-.35c-7.87-1.58-12.71-9.54-15.26-17.14a60.43,60.43,0,0,1-3-22.35,24,24,0,0,0,15.62,3.16c8.19-1.06,15.58-5.24,22.93-9a5.77,5.77,0,0,1,2.76-.84,5.92,5.92,0,0,1,1.87.51c9.63,3.87,20.23,8.05,30.15,6.48.32,1.46.62,3.05.9,4.85.85,5.56,3.26,9.64,4.79,14.5C298.92,304.48,299.42,307.32,298.21,310.86Z" style="fill:#263238;stroke:#263238;stroke-linecap:round;stroke-linejoin:round"></path><path d="M305.89,242.36c0,5.43-2.41,9.89-3.42,12.71a22.78,22.78,0,0,0-7-8c-3-1.83-4.73-3.54-8.24-3.79-2.37-.16-5.85,1.55-7.21,1.84,1.19-2.36,3.07-4.74,7.31-8.57-.46-6.5-.78-8.19-3-15.21-3.43,7.77-4.12,23.1-4.31,23.78-.47,1.63.68,5,2.12,8a161.12,161.12,0,0,1,10,28.58c-9.92,1.57-20.52-2.61-30.15-6.48a5.92,5.92,0,0,0-1.87-.51,5.77,5.77,0,0,0-2.76.84c-7.35,3.74-14.74,7.92-22.93,9a24,24,0,0,1-15.62-3.16c.61-11.12,4.31-22,11.31-30.44,0,0,.46-8.16.46-10,0-17.79-4.71-42.8-5.22-46.1s-2.51-8.34-5-8.34c7.47-2.7,20-6.91,25.73-11.7.11.27.22.51.33.77h0a35,35,0,0,0,3.16,6.3c2.52,3.72,2.55,3.83,2.49,5.38a7.73,7.73,0,0,1-.5,1.93,12.09,12.09,0,0,0,0,2.94c.66,9.08,5.1,35.18,9.58,41.05,5.19-13.33,7.27-28.31,5.06-42.47l-.21-1.21c-.19-1.12-3.22-3.06-1.79-7.17.82-2.36,1.29-4.07,1.62-5.36.56-2.18.72-3.16,1.47-4a45.22,45.22,0,0,1,6,4.17c.17.39,1.31.76,1.07.43,2.83,1.68,6.29,1.69,9.55,2.21,4.77.76,8.08,3.77,11.9,6.71C302.34,216.2,305.89,242.36,305.89,242.36Z" style="fill:#EFA87B"></path><g style="clip-path:url(#freepik--clip-path--inject-236)"><path d="M263.4,201.64a15.26,15.26,0,0,1-5.06,6.48,5.37,5.37,0,0,0,6.68-1.26,5.71,5.71,0,0,1-2.44,4,12.62,12.62,0,0,0,12.65-8.7,23.83,23.83,0,0,0,.74-5.83,18.81,18.81,0,0,0-.23-4.92,6.52,6.52,0,0,0-2.59-4.07,2.3,2.3,0,0,0-1.28-.44c-.95,0-1.66.87-2.2,1.66a65.61,65.61,0,0,0-5.2,9c-.37.8-.74,1.6-1.1,2.41l0,.09Z" style="opacity:0.2"></path><path d="M242.19,204.17c3.61-5.83,4.95-12.75,6.21-19.49.39-2.07.5-4.75-1.38-5.69a3.38,3.38,0,0,0-3.83,1,11.21,11.21,0,0,0-2,3.75,60.22,60.22,0,0,1-4.12,8.66c-3.83,6.65-9,12.81-10.47,20.34a9.08,9.08,0,0,0,.25,5.32c.52,1.21,2.45,3.38,4,2.61.86-.43,2.36-4.66,3-5.61C236.46,211.29,239.78,208.07,242.19,204.17Z" style="opacity:0.2"></path><path d="M245.44,249a32.9,32.9,0,0,1,3.91-3.92,18.15,18.15,0,0,1,3.19-1.72l7.37-3.35c5.68-2.57,11.67-5.42,15-10.68.38-.58.7-1.37.28-1.92s-1.31-.44-2-.24c-1.42.39-2.84.79-4.25,1.2-7.15,2.05-14.23,4.33-21.15,7-3.2,1.25-6.56,2.74-8.43,5.63-1,1.49-1.49,3.29-2.71,4.58a20.7,20.7,0,0,1-3.95,2.66,18.31,18.31,0,0,0-6.6,8.85c2.67.76,7.74-1.52,10.34-2.53A25.4,25.4,0,0,0,245.44,249Z" style="opacity:0.2"></path><path d="M294.6,229.62a5.47,5.47,0,0,1-.89,1.85,4.76,4.76,0,0,1-1.34,1,10.5,10.5,0,0,1-4.84,1.25,19.93,19.93,0,0,1-.79-5.79,6.79,6.79,0,0,0,6.08-1.87c1.09-1.05,1.74-3.72,3.18-4A26,26,0,0,1,294.6,229.62Z" style="opacity:0.2"></path></g><path d="M305.89,242.36c0,5.43-2.41,9.89-3.42,12.71a22.78,22.78,0,0,0-7-8c-3-1.83-4.73-3.54-8.24-3.79-2.37-.16-5.85,1.55-7.21,1.84,1.19-2.36,3.07-4.74,7.31-8.57-.46-6.5-.78-8.19-3-15.21-3.43,7.77-4.12,23.1-4.31,23.78-.47,1.63.68,5,2.12,8a161.12,161.12,0,0,1,10,28.58c-9.92,1.57-20.52-2.61-30.15-6.48a5.92,5.92,0,0,0-1.87-.51,5.77,5.77,0,0,0-2.76.84c-7.35,3.74-14.74,7.92-22.93,9a24,24,0,0,1-15.62-3.16c.61-11.12,4.31-22,11.31-30.44,0,0,.46-8.16.46-10,0-17.79-4.71-42.8-5.22-46.1s-2.51-8.34-5-8.34c7.47-2.7,20-6.91,25.73-11.7.11.27.22.51.33.77h0a35,35,0,0,0,3.16,6.3c2.52,3.72,2.55,3.83,2.49,5.38a7.73,7.73,0,0,1-.5,1.93,12.09,12.09,0,0,0,0,2.94c.66,9.08,5.1,35.18,9.58,41.05,5.19-13.33,7.27-28.31,5.06-42.47l-.21-1.21c-.19-1.12-3.22-3.06-1.79-7.17.82-2.36,1.29-4.07,1.62-5.36.56-2.18.72-3.16,1.47-4a45.22,45.22,0,0,1,6,4.17c.17.39,1.31.76,1.07.43,2.83,1.68,6.29,1.69,9.55,2.21,4.77.76,8.08,3.77,11.9,6.71C302.34,216.2,305.89,242.36,305.89,242.36Z" style="fill:none;stroke:#263238;stroke-linecap:round;stroke-linejoin:round"></path><path d="M284.61,199.68c3.17,8.06.47,18.87-1.51,26.21" style="fill:#EFA87B;stroke:#263238;stroke-linecap:round;stroke-linejoin:round"></path><path d="M289.59,193.45c0,9.88-3.65,21.9-6.49,32.44" style="fill:none;stroke:#263238;stroke-linecap:round;stroke-linejoin:round"></path><path d="M290.71,234.34a13.85,13.85,0,0,1,8.67-.53" style="fill:#EFA87B;stroke:#263238;stroke-linecap:round;stroke-linejoin:round"></path><path d="M289.59,236.55a8.35,8.35,0,0,1,8.59,2.07" style="fill:#EFA87B;stroke:#263238;stroke-linecap:round;stroke-linejoin:round"></path><path d="M249.19,247.94a30.51,30.51,0,0,0,15.09-1.53" style="fill:none;stroke:#263238;stroke-linecap:round;stroke-linejoin:round"></path><path d="M271.22,249.72c1-.46,2-1,3-1.51" style="fill:none;stroke:#263238;stroke-linecap:round;stroke-linejoin:round"></path><path d="M243.55,251.47a39.72,39.72,0,0,0,25.48-.85" style="fill:none;stroke:#263238;stroke-linecap:round;stroke-linejoin:round"></path><path d="M243.23,257.2c8.46,1.82,17.93.35,26,3.7,1,.41,2.09,1.21,1.84,2.24s-1.61,1.2-2.66,1.18c-11.72-.18-24.21,1.07-33.49,8.24" style="fill:none;stroke:#263238;stroke-linecap:round;stroke-linejoin:round"></path><path d="M237,255.05a22.79,22.79,0,0,0,3.37,1.39" style="fill:none;stroke:#263238;stroke-linecap:round;stroke-linejoin:round"></path><path d="M261.12,232.54q-.12,20.82-.23,41.64" style="fill:none;stroke:#263238;stroke-linecap:round;stroke-linejoin:round"></path><path d="M298.21,310.86a10.73,10.73,0,0,1-.52,1.24c-.05-.92-.14-1.83-.25-2.73,0-.37-.08-.74-.15-1.1-.14-1.1-.33-2.18-.57-3.27-.07-.38-.17-.77-.26-1.15,0-.21-.1-.41-.15-.61-.12-.5-.26-1-.4-1.49s-.31-1-.47-1.48C293,293,288.55,286.73,281.79,283c-2.72,4.62-5.38,7.23-8,8.56-8.36,4.18-16.67-4.35-27-2.8,0,0-17.65,2.28-17.13,18.66a13.7,13.7,0,0,0,9.22,12.17c-.36.43-.72.89-1.09,1.38l-.74-.13c-7.87-1.58-12.71-9.54-15.26-17.14a60.43,60.43,0,0,1-3-22.35,24,24,0,0,0,15.62,3.16c8.19-1.06,15.58-5.24,22.93-9a5.77,5.77,0,0,1,2.76-.84,5.92,5.92,0,0,1,1.87.51c9.63,3.87,20.23,8.05,30.15,6.48.32,1.46.62,3.05.9,4.85.85,5.56,3.26,9.64,4.79,14.5C298.92,304.48,299.42,307.32,298.21,310.86Z" style="fill:#fff;stroke:#263238;stroke-linecap:round;stroke-linejoin:round"></path><path d="M200.88,396.25s-7.46,3.53-9.74,7.17-9.58,16.2-11.63,20.76-5.7,26.91,7.52,26S197.48,434.8,200.49,429,220.72,392.6,200.88,396.25Z" style="fill:#263238;stroke:#263238;stroke-linecap:round;stroke-linejoin:round"></path><path d="M216.84,397.82s-2.41-.1-3.3,9.18-2.43,9.92-2.21,12.14.2,7.74,6.18,10.83,9.81,6.55,16.16-4.87c3.32-6-2.87-24.83-5.11-27.28C222.78,391.49,216.84,397.82,216.84,397.82Z" style="fill:#263238;stroke:#263238;stroke-linecap:round;stroke-linejoin:round"></path><path d="M297.51,322.66a24.27,24.27,0,0,1-1.63,6.77,23.14,23.14,0,0,1-1.81,3.71c-8.2,13.48-17,21.86-29.26,32.43-6.29,5.43-13,10.36-19.11,16-7,6.48-13.59,14.9-13.12,24.45.16,3.52,1,8.91-3.12,9.17-15.89,1-13.59-7.73-13.17-10.56s1.9-5.37,3.35-7.84c5.75-9.84,11.51-19.67,17.71-29.23,8.47-13,17.76-25.56,25.68-38.94,2.49-4.2,4.87-8.59,5.74-13.38s.5-11.09-2.83-14.66c.17-1,4-4.89,7.82-9.06,2.65-1.33,5.31-3.94,8-8.56,6.76,3.78,11.18,10,13.65,17.32.16.49.32,1,.47,1.48s.28,1,.4,1.49c.05.2.11.4.15.61.09.38.19.77.26,1.15.24,1.09.43,2.17.57,3.27.06.36.11.74.15,1.1.11.9.2,1.81.25,2.73A65.37,65.37,0,0,1,297.51,322.66Z" style="fill:#5c5c5c;stroke:#263238;stroke-linecap:round;stroke-linejoin:round"></path><path d="M229.64,307.37a13.73,13.73,0,0,0,9.23,12.18c-6.61,8-14.8,25.76-19.89,40.11C215.3,370,210.38,382.8,204.51,391a136.51,136.51,0,0,0-10.06,16.15c-.81,1.53-1.56,2.87-2.13,3.73-2.28,3.42-5.43,16.19,1.41,17.78s18-16.36,20.61-24.23a30.53,30.53,0,0,1,1.32-3.61,47.43,47.43,0,0,1,3.37-5.11c1.47-2.27,4.65-7.75,6.09-10,17.33-27.78,26.92-31.9,39.91-54.28,3.74-6.44,6.63-11.68,7.51-15.12,2-7.63-1.41-11.11-6.83-17.95-4.89-6.18-11.14-10.81-18.93-9.58C246.78,288.71,229.14,291,229.64,307.37Z" style="fill:#5c5c5c;stroke:#263238;stroke-linecap:round;stroke-linejoin:round"></path><path d="M263.09,330.12a46.35,46.35,0,0,0,9.45-13.88" style="fill:none;stroke:#263238;stroke-linecap:round;stroke-linejoin:round"></path><path d="M258.33,334.36c1-.81,2.06-1.69,3.13-2.66" style="fill:none;stroke:#263238;stroke-linecap:round;stroke-linejoin:round"></path><path d="M287.43,336.79a7.65,7.65,0,0,0,4.4-1.86,15.42,15.42,0,0,0,3.44-4.07" style="fill:#5c5c5c;stroke:#263238;stroke-linecap:round;stroke-linejoin:round"></path><path d="M261.16,233.06c-4.48-5.87-8.92-32-9.58-41.05.52.83,1.06,1.66,1.63,2.46A91.48,91.48,0,0,1,260.39,206a88.26,88.26,0,0,0,5.82-15.36C268.43,204.75,266.36,219.73,261.16,233.06Z" style="fill:#fff;stroke:#263238;stroke-linecap:round;stroke-linejoin:round"></path><path d="M302.09,256.55a5.6,5.6,0,0,1-5.78,1.57l-1.19-.41c-9.09-3.24-12.36-7.48-13.55-10.15a6.69,6.69,0,0,1-.66-2.56,7.75,7.75,0,0,1,4.31-1.71c5.55-.46,12,4.4,15.12,8.44C302,253.85,302.78,255.75,302.09,256.55Z" style="fill:#263238;stroke:#263238;stroke-linecap:round;stroke-linejoin:round"></path><path d="M285.22,243.29l-.38.41c-1.13,1.24-2.22,2.54-3.27,3.86-1.31,1.66-2.53,3.35-3.7,5.11s-2.34,3.68-3.55,5.49a76.45,76.45,0,0,1-7.64,9.75,6.44,6.44,0,0,1-1.57,1.38,7,7,0,0,1-2.63.69c-4,.56-8.2,1.44-11.24,4.11-1.25,1.1-2.27,2.48-3.7,3.31s-3.69,1.49-3.76,3.23a2.75,2.75,0,0,0,.37,1.34c1.26,2.37,4.19,3.45,6.87,3.26a20.18,20.18,0,0,0,7.56-2.59,169.47,169.47,0,0,0,15.23-8.4c4.09-2.61,8-5.51,11.86-8.49a100.54,100.54,0,0,0,9.45-8,46.41,46.41,0,0,0,5.22-6C297.18,247.69,290.77,242.83,285.22,243.29Z" style="fill:#fff"></path><g style="clip-path:url(#freepik--clip-path-2--inject-236)"><path d="M292.8,250.68l3.13,4.83c.18.27.42.58.75.55a.92.92,0,0,0,.5-.33,15,15,0,0,0,3.24-5.27c-2.1-2.75-6-6.29-9.6-6.8C285.12,242.86,291.5,248.67,292.8,250.68Z" style="opacity:0.2"></path></g><path d="M285.22,243.29l-.38.41c-1.13,1.24-2.22,2.54-3.27,3.86-1.31,1.66-2.53,3.35-3.7,5.11s-2.34,3.68-3.55,5.49a76.45,76.45,0,0,1-7.64,9.75,6.44,6.44,0,0,1-1.57,1.38,7,7,0,0,1-2.63.69c-4,.56-8.2,1.44-11.24,4.11-1.25,1.1-2.27,2.48-3.7,3.31s-3.69,1.49-3.76,3.23a2.75,2.75,0,0,0,.37,1.34c1.26,2.37,4.19,3.45,6.87,3.26a20.18,20.18,0,0,0,7.56-2.59,169.47,169.47,0,0,0,15.23-8.4c4.09-2.61,8-5.51,11.86-8.49a100.54,100.54,0,0,0,9.45-8,46.41,46.41,0,0,0,5.22-6C297.18,247.69,290.77,242.83,285.22,243.29Z" style="fill:none;stroke:#263238;stroke-linecap:round;stroke-linejoin:round"></path><path d="M237.59,151.36a12.58,12.58,0,0,0-2.93,8.55,37.19,37.19,0,0,0,1.53,9.1l2.37,9.36a2.73,2.73,0,0,0,.73,1.49,2.67,2.67,0,0,0,2.32.24,46.42,46.42,0,0,0,6.44-1.85c1.75-.64,3.56-1.47,4.54-3.06a8,8,0,0,0,.95-3.68,27.73,27.73,0,0,0-3.38-15.11,12.35,12.35,0,0,0-4.44-5,6,6,0,0,0-6.38,0l-.22,1.09Z" style="fill:#263238;stroke:#263238;stroke-linecap:round;stroke-linejoin:round"></path><path d="M266.21,190.59A88.26,88.26,0,0,1,260.39,206a91.48,91.48,0,0,0-7.18-11.48c-.57-.8-1.11-1.63-1.63-2.46a11.08,11.08,0,0,1,0-2.94,7.75,7.75,0,0,0,.51-1.93c0-1.56,0-1.66-2.5-5.39a34.89,34.89,0,0,1-3.16-6.29h0c.41-3.8-2.31-8.74-1-8.64a14,14,0,0,0,3.51,2.66,30.73,30.73,0,0,0,8.76,2.81c1.36.28,1.94.64,3.26.23a4.32,4.32,0,0,0,1-.44,8.2,8.2,0,0,0,1.69-1.36l.13-.14c.28-.26.63-.73.51,1-.27,3.94.63,5.08,1.52,5.3-.33,1.29-.8,3-1.62,5.36-1.43,4.1,1.6,6,1.79,7.17Z" style="fill:#fff;stroke:#263238;stroke-linecap:round;stroke-linejoin:round"></path><path d="M257.58,176.42c4,.68,7.56-8.53,6.71-9.61a3.84,3.84,0,0,0-2.7-1.18c-3.17-.32-6.25.76-9.41.83a12.33,12.33,0,0,1-4.5-.82c-1.58-.53-2.49-1-2.17,1C246.26,171.38,253.39,175.69,257.58,176.42Z" style="fill:#263238;stroke:#263238;stroke-linecap:round;stroke-linejoin:round"></path><path d="M268.89,158.91c-.05.5-.11,1-.19,1.49a20.08,20.08,0,0,1-5.11,11l-.13.14a8.52,8.52,0,0,1-1.72,1.39,2.93,2.93,0,0,1-.56.28,1.67,1.67,0,0,1-.44.17c-1.35.41-1.94.05-3.34-.24-3.07-.62-11.49-4.49-12.51-5.58h0c-1.14-1.2-2.76-5.17-3.15-5.49a3,3,0,0,0-1.74-.33,3.9,3.9,0,0,1-1.08-.21c0-.33,0-.68-.07-1a13.07,13.07,0,0,1,0-1.77c.11-2.49,2.82-4.84,4.55-6.63a25.74,25.74,0,0,0,5.86-9.74c.89-2.74,1.34-5.64,2.7-8.19,1.18-2.23,3.35-4.17,5.79-4.41h.2l.54,0a38,38,0,0,1,9,13.47l.09.41c.1.41.18.84.25,1.24A49.42,49.42,0,0,1,268.89,158.91Z" style="fill:#fff;stroke:#263238;stroke-linecap:round;stroke-linejoin:round"></path><path d="M257.74,129.8c-2.44.24-4.61,2.18-5.79,4.41-1.36,2.55-1.81,5.45-2.7,8.19a25.74,25.74,0,0,1-5.86,9.74c-1.73,1.79-4.44,4.14-4.55,6.63a13.07,13.07,0,0,0,0,1.77c0,.33,0,.68.07,1a4.83,4.83,0,0,1-.81-.35,13.82,13.82,0,0,1,0-1.82c.11-2.54,2.88-4.95,4.65-6.77a26.31,26.31,0,0,0,6-10c.92-2.8,1.37-5.76,2.77-8.36C252.75,131.94,255.11,129.87,257.74,129.8Z" style="fill:#fff;stroke:#263238;stroke-linecap:round;stroke-linejoin:round"></path><path d="M259.28,157.06a3.64,3.64,0,0,0,2.23.25c1.29-.28,2.49-2.18,1.15-2.84a5,5,0,0,1-2-2.46" style="fill:none;stroke:#263238;stroke-linecap:round;stroke-linejoin:round"></path><path d="M253.24,161.35c4.79,3.71,8.6,1.67,8.6,1.67" style="fill:none;stroke:#263238;stroke-linecap:round;stroke-linejoin:round"></path><path d="M264.8,146.33c.62,0,1.18,1,1.24,2.2s-.37,2.28-1,2.31-1.18-.94-1.25-2.19S264.17,146.37,264.8,146.33Z" style="fill:#263238"></path><path d="M253.57,146.53c.61,0,1.18,1,1.24,2.2s-.37,2.28-1,2.31-1.18-.94-1.25-2.19S253,146.57,253.57,146.53Z" style="fill:#263238"></path><path d="M262.19,152.15l-1.14-4.83a.78.78,0,0,1,0-.26,1,1,0,0,1,1-1.09l10.85-.59a1.38,1.38,0,0,1,.29,0,1.06,1.06,0,0,1,.84,1.25l-.73,4.93a1.06,1.06,0,0,1-1,.94l-9,.49A1.13,1.13,0,0,1,262.19,152.15Z" style="fill:none;stroke:#263238;stroke-linecap:round;stroke-linejoin:round"></path><path d="M244.14,153.13l-1.25-4.83a.69.69,0,0,1,0-.25,1.13,1.13,0,0,1,1.16-1.11l12.1-.65a1,1,0,0,1,.24,0,1.15,1.15,0,0,1,1,1.26l-.8,4.94a1.21,1.21,0,0,1-1.16.94l-10,.54A1.2,1.2,0,0,1,244.14,153.13Z" style="fill:none;stroke:#263238;stroke-linecap:round;stroke-linejoin:round"></path><line x1="256.19" y1="146.44" x2="261.52" y2="146.15" style="fill:none;stroke:#263238;stroke-linecap:round;stroke-linejoin:round"></line><line x1="257.47" y1="148.79" x2="261.18" y2="148.59" style="fill:none;stroke:#263238;stroke-linecap:round;stroke-linejoin:round"></line><path d="M261.56,143.57l.07-.06a4.13,4.13,0,0,1,5.78.87" style="fill:none;stroke:#263238;stroke-linecap:round;stroke-linejoin:round"></path><path d="M248.77,144.59c4.14-3.52,7.15-.72,7.15-.72" style="fill:none;stroke:#263238;stroke-linecap:round;stroke-linejoin:round"></path><path d="M276.32,274.64c0,4-9.86,7.22-22,7.22s-22-3.23-22-7.22,9.87-7.23,22-7.23S276.32,270.65,276.32,274.64Z" style="fill:#fff;stroke:#263238;stroke-linecap:round;stroke-linejoin:round"></path><path d="M255.71,259.27c-7.31-.27-13.39,3.54-13.57,8.52s5.6,9.22,12.9,9.49,13.39-3.55,13.57-8.52S263,259.53,255.71,259.27Zm-.54,7.55c-2.23-.08-4-.79-4-1.59s1.87-1.38,4.1-1.3,4,.79,4,1.59S257.41,266.9,255.17,266.82Z" style="fill:#fff;stroke:#263238;stroke-linecap:round;stroke-linejoin:round"></path><path d="M243.58,270c.45-.1.66-.62,1.06-.85a1.38,1.38,0,0,1,1.59.37,16.1,16.1,0,0,1,1,1.43,3.8,3.8,0,0,0,5.19.58,3.58,3.58,0,0,1,.84-.62c.92-.38,1.85.41,2.72.87a4.33,4.33,0,0,0,4.55-.43,4.48,4.48,0,0,1,1.23-.86c1-.33,2,.54,3.12.6a3.41,3.41,0,0,0,2.72-1.63c.34-.46.64-1,1-1.45-.36-4.66-5.92-8.53-12.88-8.78-6-.22-11.13,2.29-12.91,5.93a2.56,2.56,0,0,1,.37-.3,2.56,2.56,0,0,0-.37.3,6.29,6.29,0,0,0-.66,2.59,6.15,6.15,0,0,0,.12,1.42,3.24,3.24,0,0,0,.37.46A1.11,1.11,0,0,0,243.58,270Zm11.7-6.11c2.24.08,4,.79,4,1.59s-1.87,1.38-4.11,1.3-4-.79-4-1.59S253.05,263.85,255.28,263.93Z" style="fill:#5c5c5c;stroke:#263238;stroke-linecap:round;stroke-linejoin:round"></path><path d="M270.68,215.7a7.15,7.15,0,0,0,.24,1.37,11,11,0,0,0,.68,1.92,9.39,9.39,0,0,0,1.56,2.19l.43.41a9.46,9.46,0,0,0,1.22,1.06,8,8,0,0,0,2.77,1.47.64.64,0,0,1,.42.38c.11.26.25.5.37.75a5.24,5.24,0,0,1,.29.64,1.53,1.53,0,0,0,.58.77,5.15,5.15,0,0,0,1.73.73,18.32,18.32,0,0,0,4.88.64,24.13,24.13,0,0,0,2.55-.07,19.24,19.24,0,0,0,2.72-.43,7.6,7.6,0,0,0,2.06-.75,1.55,1.55,0,0,0,.65-.62c.07-.15.1-.29.18-.44.21-.42.41-.85.61-1.27.31-.65.57-1.32.82-2s.5-1.31.68-2,.37-1.38.51-2.08c.25-1.17.46-2.36.65-3.56.09-.56.12-1.21.18-1.77a4.93,4.93,0,0,0-.07-1.38,1.88,1.88,0,0,0-.44-.85,6.41,6.41,0,0,0-2.14-1.58,10.8,10.8,0,0,0-2.41-.79c-.35-.07-.68-.18-1-.24a25.9,25.9,0,0,0-11,.2,16,16,0,0,0-2.14.65,8.25,8.25,0,0,0-1.71,1,3.48,3.48,0,0,0-1,1.08,2.33,2.33,0,0,0-.2.52c-.07.22-.07.23-.28.18a3.29,3.29,0,0,0-3.22.81,3.43,3.43,0,0,0-.74,1.23A4.54,4.54,0,0,0,270.68,215.7Zm9.22-2.29a10.36,10.36,0,0,1-2.11-.74,1.28,1.28,0,0,1-.47-.29,3,3,0,0,1,1-1,6.71,6.71,0,0,1,.84-.44,9.38,9.38,0,0,1,1.57-.54,21.08,21.08,0,0,1,2.52-.45,22.06,22.06,0,0,1,2.44-.17c.77,0,1.37,0,2.14,0a24.66,24.66,0,0,1,2.85.36,12.76,12.76,0,0,1,2.79.81,4.85,4.85,0,0,1,2,1.4l-.07.06-.21.14a5.07,5.07,0,0,1-.61.32,10.94,10.94,0,0,1-2.5.76c-.2.05-.39.09-.59.12l-.33.05c-.64.11-1.28.17-1.92.23s-1.25.09-1.88.08l-1.45,0h-.42c-.64,0-1.28-.07-1.92-.14s-1.14-.08-1.71-.16S280.54,213.56,279.9,213.41Zm-6.23,1.86a1.39,1.39,0,0,1,1.16-1l.42,0c.11.94.29,1.84.44,2.74.2,1.18.49,2.34.79,3.5a6.1,6.1,0,0,0,.64,1.63l-.64-.55a9.36,9.36,0,0,1-1.59-2,9.1,9.1,0,0,1-1.16-2.31A3.32,3.32,0,0,1,273.67,215.27Z" style="fill:#fff;stroke:#263238;stroke-linecap:round;stroke-linejoin:round"></path><path d="M270.68,215.7a7.15,7.15,0,0,0,.24,1.37,11,11,0,0,0,.68,1.92,9.39,9.39,0,0,0,1.56,2.19l.43.41a9.46,9.46,0,0,0,1.22,1.06,8,8,0,0,0,2.77,1.47.64.64,0,0,1,.42.38c.11.26.25.5.37.75a5.24,5.24,0,0,1,.29.64,1.53,1.53,0,0,0,.58.77,5.15,5.15,0,0,0,1.73.73,18.32,18.32,0,0,0,4.88.64,24.13,24.13,0,0,0,2.55-.07,19.24,19.24,0,0,0,2.72-.43,7.6,7.6,0,0,0,2.06-.75,1.55,1.55,0,0,0,.65-.62c.07-.15.1-.29.18-.44.21-.42.41-.85.61-1.27.31-.65.57-1.32.82-2s.5-1.31.68-2,.37-1.38.51-2.08c.25-1.17.46-2.36.65-3.56.09-.56.12-1.21.18-1.77a4.93,4.93,0,0,0-.07-1.38,1.88,1.88,0,0,0-.44-.85,6.41,6.41,0,0,0-2.14-1.58,10.8,10.8,0,0,0-2.41-.79c-.35-.07-.68-.18-1-.24a25.9,25.9,0,0,0-11,.2,16,16,0,0,0-2.14.65,8.25,8.25,0,0,0-1.71,1,3.48,3.48,0,0,0-1,1.08,2.33,2.33,0,0,0-.2.52c-.07.22-.07.23-.28.18a3.29,3.29,0,0,0-3.22.81,3.43,3.43,0,0,0-.74,1.23A4.54,4.54,0,0,0,270.68,215.7Zm9.22-2.29a10.36,10.36,0,0,1-2.11-.74,1.28,1.28,0,0,1-.47-.29,3,3,0,0,1,1-1,6.71,6.71,0,0,1,.84-.44,9.38,9.38,0,0,1,1.57-.54,21.08,21.08,0,0,1,2.52-.45,22.06,22.06,0,0,1,2.44-.17c.77,0,1.37,0,2.14,0a24.66,24.66,0,0,1,2.85.36,12.76,12.76,0,0,1,2.79.81,4.85,4.85,0,0,1,2,1.4l-.07.06-.21.14a5.07,5.07,0,0,1-.61.32,10.94,10.94,0,0,1-2.5.76c-.2.05-.39.09-.59.12l-.33.05c-.64.11-1.28.17-1.92.23s-1.25.09-1.88.08l-1.45,0h-.42c-.64,0-1.28-.07-1.92-.14s-1.14-.08-1.71-.16S280.54,213.56,279.9,213.41Zm-6.23,1.86a1.39,1.39,0,0,1,1.16-1l.42,0c.11.94.29,1.84.44,2.74.2,1.18.49,2.34.79,3.5a6.1,6.1,0,0,0,.64,1.63l-.64-.55a9.36,9.36,0,0,1-1.59-2,9.1,9.1,0,0,1-1.16-2.31A3.32,3.32,0,0,1,273.67,215.27Z" style="fill:#fff;stroke:#263238;stroke-linecap:round;stroke-linejoin:round;opacity:0.8"></path><path d="M277.31,212.38a2.84,2.84,0,0,1,1-1,5.57,5.57,0,0,1,.83-.45,8.93,8.93,0,0,1,1.58-.54,21.28,21.28,0,0,1,2.51-.45c.83-.1,1.61-.15,2.45-.17s1.37,0,2.14.06a22.86,22.86,0,0,1,2.85.35,13.09,13.09,0,0,1,2.79.81,5,5,0,0,1,2,1.4l-.06,0a1.07,1.07,0,0,1-.22.15,3.46,3.46,0,0,1-.6.32,11,11,0,0,1-2.5.77l-.59.11-.33.05c-.64.11-1.28.18-1.92.23s-1.25.08-1.88.08l-1.46,0h-.42c-.64,0-1.28-.07-1.92-.12s-1.13-.09-1.7-.17-1.29-.27-1.93-.42a9.87,9.87,0,0,1-2.12-.74A1.24,1.24,0,0,1,277.31,212.38Z" style="fill:#fff;stroke:#263238;stroke-linecap:round;stroke-linejoin:round;opacity:0.7000000000000001"></path><path d="M277.34,212.38a2.84,2.84,0,0,1,1-1,5.57,5.57,0,0,1,.83-.45,8.93,8.93,0,0,1,1.58-.54,21.28,21.28,0,0,1,2.51-.45c.83-.1,1.61-.15,2.45-.17s1.37,0,2.14.06a22.86,22.86,0,0,1,2.85.35,13.09,13.09,0,0,1,2.79.81,5,5,0,0,1,2,1.4l-.06,0a1.07,1.07,0,0,1-.22.15,3.46,3.46,0,0,1-.6.32,11,11,0,0,1-2.5.77l-.59.11-.33.05c-.64.11-1.28.18-1.92.23s-1.25.08-1.88.08l-1.46,0h-.42c-.64,0-1.28-.07-1.92-.12s-1.13-.09-1.7-.17-1.29-.27-1.93-.42a9.87,9.87,0,0,1-2.12-.74A1.24,1.24,0,0,1,277.34,212.38Z" style="fill:#fff;stroke:#263238;stroke-linecap:round;stroke-linejoin:round"></path><path d="M277.34,212.38a2.84,2.84,0,0,1,1-1,5.57,5.57,0,0,1,.83-.45,8.93,8.93,0,0,1,1.58-.54,21.28,21.28,0,0,1,2.51-.45c.83-.1,1.61-.15,2.45-.17s1.37,0,2.14.06a22.86,22.86,0,0,1,2.85.35,13.09,13.09,0,0,1,2.79.81,5,5,0,0,1,2,1.4l-.06,0a1.07,1.07,0,0,1-.22.15,3.46,3.46,0,0,1-.6.32,11,11,0,0,1-2.5.77l-.59.11-.33.05c-.64.11-1.28.18-1.92.23s-1.25.08-1.88.08l-1.46,0h-.42c-.64,0-1.28-.07-1.92-.12s-1.13-.09-1.7-.17-1.29-.27-1.93-.42a9.87,9.87,0,0,1-2.12-.74A1.24,1.24,0,0,1,277.34,212.38Z" style="fill:#fff;stroke:#263238;stroke-linecap:round;stroke-linejoin:round"></path><path d="M277.32,212.38a1.28,1.28,0,0,0,.47.29,10.36,10.36,0,0,0,2.11.74c.64.15,1.28.33,1.93.42s1.14.12,1.71.16,1.28.11,1.92.14h.42l1.45,0c.63,0,1.26,0,1.88-.08s1.28-.12,1.92-.23l.33-.05c.2,0,.39-.07.59-.12a10.94,10.94,0,0,0,2.5-.76,5.07,5.07,0,0,0,.61-.32l.21-.14.07-.06a4.85,4.85,0,0,0-2-1.4,12.76,12.76,0,0,0-2.79-.81,24.66,24.66,0,0,0-2.85-.36c-.77,0-1.37-.07-2.14,0a22.06,22.06,0,0,0-2.44.17,21.08,21.08,0,0,0-2.52.45,9.38,9.38,0,0,0-1.57.54,6.71,6.71,0,0,0-.84.44A3,3,0,0,0,277.32,212.38Z" style="fill:#263238"></path><path d="M346,165.37c-5.35-5.14-13.59-5.41-21-5.28-2.7,0-5.53.15-7.86,1.51s-3.88,4.44-2.64,6.84,4.77,3.92,4,6.45c-6.22,2.88-13.49,1.92-20.26,3.08a32.37,32.37,0,0,0-14.75,6.65,6.37,6.37,0,0,0-2.59,3.52c-.44,2.48,1.7,4.36,4,5.64a.54.54,0,0,1-.11,1,13.61,13.61,0,0,0-4.55,2.15l0,0a1.09,1.09,0,0,0,.75,1.93h.38c2.81,0,5.09,1.53,5.09,3.42s-2.28,3.43-5.09,3.43c-.7,0-.23.86.75,1.11a15,15,0,0,0,6,0c2.38-.37,4.95-1,6.43-2.88s.91-5.4-1.46-5.83a83.26,83.26,0,0,0,14.33-1.84c2.06-.45,4.31-1.12,5.44-2.91s0-4.85-2.11-4.63c6.2-1.87,12.66-2.74,18.9-4.44s12.46-4.4,16.84-9.17a7.73,7.73,0,0,0,2.11-3.65C349,169.21,347.65,167,346,165.37Z" style="fill:#fff;stroke:#263238;stroke-linecap:round;stroke-linejoin:round"></path><path d="M346,165.37c-5.35-5.14-13.59-5.41-21-5.28-2.7,0-5.53.15-7.86,1.51s-3.88,4.44-2.64,6.84,4.77,3.92,4,6.45c-6.22,2.88-13.49,1.92-20.26,3.08a32.37,32.37,0,0,0-14.75,6.65,6.37,6.37,0,0,0-2.59,3.52c-.44,2.48,1.7,4.36,4,5.64a.54.54,0,0,1-.11,1,13.61,13.61,0,0,0-4.55,2.15l0,0a1.09,1.09,0,0,0,.75,1.93h.38c2.81,0,5.09,1.53,5.09,3.42s-2.28,3.43-5.09,3.43c-.7,0-.23.86.75,1.11a15,15,0,0,0,6,0c2.38-.37,4.95-1,6.43-2.88s.91-5.4-1.46-5.83a83.26,83.26,0,0,0,14.33-1.84c2.06-.45,4.31-1.12,5.44-2.91s0-4.85-2.11-4.63c6.2-1.87,12.66-2.74,18.9-4.44s12.46-4.4,16.84-9.17a7.73,7.73,0,0,0,2.11-3.65C349,169.21,347.65,167,346,165.37Z" style="fill:#fff;stroke:#263238;stroke-linecap:round;stroke-linejoin:round;opacity:0.8"></path><path d="M252.85,224.53c1.61-.74,4.85-3.62,6.16-4.81s2.13-2.52,3.28-3.7,3.3-4.19,10.57-4.08c2.24,1.11-1.12,2.69-3.84,3.82a.41.41,0,0,0,.26.78c2.72-.66,3.21-1.44,5.66-1.66.84,1.13.92,2.15-.72,3.91-3.44,3.68.56,7.75-3.5,10.73a24.37,24.37,0,0,1-4.51,2.33c-1.79.72-6.56.57-8.35,1.28-5,2-18,9.17-19.79,8.33.1-2.53.21-5.06.31-7.58.12-3-.38-4.1,2.46-5.14C246.79,226.57,248.32,226.64,252.85,224.53Z" style="fill:#fff;stroke:#263238;stroke-linecap:round;stroke-linejoin:round"></path><path d="M228.1,231.79c10-2.79,14-4,14-4,2.64,5.18,0,19.57-.92,19.83-8.09,2.27-9.8,2.63-23.45,5.66-3.23.71-4.37-2.91-4.63-3.65-4.3-12.15-3.86-21.84-2.8-38.86,0,0,.66-18.52,10.08-24.38C228.63,181.24,229.63,222.46,228.1,231.79Z" style="fill:#EFA87B;stroke:#263238;stroke-linecap:round;stroke-linejoin:round"></path><path d="M210.26,208.55a19.57,19.57,0,0,0,2.5,9.66" style="fill:none;stroke:#263238;stroke-linecap:round;stroke-linejoin:round"></path><path d="M220.89,252.72a61.19,61.19,0,0,0,19.49-9.41" style="fill:none;stroke:#263238;stroke-linecap:round;stroke-linejoin:round"></path><path d="M226.21,238a29.32,29.32,0,0,0-1.35,6.51" style="fill:none;stroke:#263238;stroke-linecap:round;stroke-linejoin:round"></path><path d="M228.09,233.57a25.55,25.55,0,0,0-1.11,2.37" style="fill:none;stroke:#263238;stroke-linecap:round;stroke-linejoin:round"></path><path d="M224.64,233.84a7.85,7.85,0,0,0-2.52,4.2" style="fill:none;stroke:#263238;stroke-linecap:round;stroke-linejoin:round"></path><path d="M277.64,196.07c-1.37,4.72-7,8.55-11.28,6.07,3.76-2.46,4-8.12,2-12.12.76,2.7-.81,8.77-5,11.09-1.39.77-3.28,1-4.49-.06,8.22-6.47,2.69-28,2.87-28.09a8.52,8.52,0,0,0,1.72-1.39l.13-.14a20.08,20.08,0,0,0,5.11-11c.13-.7.23-1.39.29-2.09a48.5,48.5,0,0,0-1.08-13.68c-.08-.41-.15-.81-.24-1.22a.9.9,0,0,0-.1-.4c-.61-1.33-.7-3.31-1.4-3.45-5.94-1.12-7-8.33-7.31-8.31-.08,0-9.27,4.46-9.61,11.15-.2,3.8-3.21,7-5.86,9.74-1.73,1.79-4.44,4.14-4.55,6.63a13.07,13.07,0,0,0,0,1.77c0,.33,0,.68.07,1,.71,7,4.83,13.62,4.41,20.69s-5.37,13.13-9.5,19S226.45,213,229,219.76c-5.59-2.19-8.21-8.87-8-14.87s.91-14.88,3.86-20.12c11.93-21.19-6.41-36.27,5.77-52.26,17.27-22.68,37.6-3.52,41.11,13.55,1.14,5.58,1.19,11.32,1.63,17a116.69,116.69,0,0,0,3,18.48C277.54,186.32,279,191.33,277.64,196.07Z" style="fill:#263238;stroke:#263238;stroke-linecap:round;stroke-linejoin:round"></path></g><g id="freepik--Clock--inject-236"><circle cx="232.12" cy="59.68" r="24.7" transform="translate(-4.28 20.24) rotate(-4.95)" style="fill:#fff;stroke:#263238;stroke-linecap:round;stroke-linejoin:round"></circle><circle cx="232.12" cy="59.68" r="19.45" transform="translate(153.58 286.11) rotate(-85.29)" style="fill:#fff;stroke:#263238;stroke-linecap:round;stroke-linejoin:round"></circle><path d="M234.22,61.72a2.14,2.14,0,1,1,0-3A2.14,2.14,0,0,1,234.22,61.72Z" style="fill:#263238;stroke:#263238;stroke-linecap:round;stroke-linejoin:round"></path><polygon points="231.98 60.59 231.6 48.15 232.31 46.87 232.89 48.11 233.23 59.38 247.38 62.65 248.33 63.23 247.13 63.92 231.98 60.59" style="fill:#263238;stroke:#263238;stroke-linecap:round;stroke-linejoin:round"></polygon></g></svg>