<?xml version="1.0" encoding="utf-8"?><svg xmlns="http://www.w3.org/2000/svg" xmlns:xlink="http://www.w3.org/1999/xlink" width="1920" height="628" preserveAspectRatio="xMidYMid" viewBox="0 0 1920 628" style="z-index:1;margin-right:-2px;display:block;animation-play-state:paused" ><g transform="translate(960,314) scale(-1,1) translate(-960,-314)" style="transform:matrix(-1, 0, 0, 1, 1920, 0);animation-play-state:paused" ><linearGradient id="lg-0.4561312839662688" x1="0" x2="1" y1="0" y2="0" style="animation-play-state:paused" ><stop stop-color="#2ec5b2" offset="0" style="animation-play-state:paused" ></stop>

  
<stop stop-color="#0a99d1" offset="1" style="animation-play-state:paused" ></stop></linearGradient>
<path d="M 0 0 L 0 493.821 Q 192 105.433 384 73.0078 T 768 -209.479 T 1152 -630.303 T 1536 -965.133 T 1920 -1358.73 L 1920 0 Z" fill="url(#lg-0.4561312839662688)" opacity="0.4" style="opacity:0.4;animation-play-state:paused" ></path>
<path d="M 0 0 L 0 417.022 Q 192 168.422 384 129.819 T 768 -197.717 T 1152 -554.044 T 1536 -884.273 T 1920 -1249.43 L 1920 0 Z" fill="url(#lg-0.4561312839662688)" opacity="0.4" style="opacity:0.4;animation-play-state:paused" ></path>
<path d="M 0 0 L 0 421.753 Q 192 195.361 384 157.894 T 768 -180.178 T 1152 -512.867 T 1536 -895.052 T 1920 -1164.21 L 1920 0 Z" fill="url(#lg-0.4561312839662688)" opacity="0.4" style="opacity:0.4;animation-play-state:paused" ></path></g></svg>