<?xml version="1.0" encoding="utf-8"?><svg xmlns="http://www.w3.org/2000/svg" xmlns:xlink="http://www.w3.org/1999/xlink" width="1920" height="628" preserveAspectRatio="xMidYMid" viewBox="0 0 1920 628" style="z-index:1;margin-right:-2px;display:block;animation-play-state:paused" ><g transform="translate(960,314) scale(1,-1) translate(-960,-314)" style="transform:matrix(1, 0, 0, -1, 0, 628);animation-play-state:paused" ><linearGradient id="lg-0.5099177910726043" x1="0" x2="1" y1="0" y2="0" style="animation-play-state:paused" ><stop stop-color="#2ec5b2" offset="0" style="animation-play-state:paused" ></stop>

  
<stop stop-color="#0a99d1" offset="1" style="animation-play-state:paused" ></stop></linearGradient>
<path d="M 0 0 L 0 449.1 Q 192 198.103 384 180.925 T 768 -212.601 T 1152 -536.97 T 1536 -802.451 T 1920 -1118.82 L 1920 0 Z" fill="url(#lg-0.5099177910726043)" opacity="0.4" style="opacity:0.4;animation-play-state:paused" ></path>
<path d="M 0 0 L 0 491.096 Q 192 147.015 384 104.462 T 768 -158.42 T 1152 -481.362 T 1536 -801.665 T 1920 -1111.01 L 1920 0 Z" fill="url(#lg-0.5099177910726043)" opacity="0.4" style="opacity:0.4;animation-play-state:paused" ></path>
<path d="M 0 0 L 0 472.863 Q 192 109.219 384 72.6509 T 768 -195.762 T 1152 -627.988 T 1536 -933.221 T 1920 -1253.17 L 1920 0 Z" fill="url(#lg-0.5099177910726043)" opacity="0.4" style="opacity:0.4;animation-play-state:paused" ></path></g></svg>